P3
24 23
255
250 250 250 255 255 255 255 255 255 255 255 255 255 255 255 252 252 252 254 254 254 255 255 255 
251 251 251 255 255 255 254 254 254 255 255 255 254 254 254 255 255 255 255 255 255 255 255 255 
251 251 251 255 255 255 250 250 250 255 255 255 251 251 251 255 255 255 253 253 253 254 254 254 

255 255 255 254 254 254 253 253 253 255 255 255 252 252 252 255 255 255 254 254 254 247 247 247 
255 255 255 226 226 226 199 199 199 210 210 210 164 164 164 221 221 221 198 198 198 255 255 255 
246 246 246 255 255 255 255 255 255 255 255 255 255 255 255 255 255 255 255 255 255 255 255 255 

255 255 255 253 253 253 254 254 254 255 255 255 254 254 254 251 251 251 247 247 247 222 222 222 
117 117 117 135 135 135 1 1 1 69 69 69 54 54 54 5 5 5 68 68 68 138 138 138 
162 162 162 249 249 249 239 239 239 255 255 255 252 252 252 253 253 253 255 255 255 253 253 253 

253 253 253 255 255 255 253 253 253 253 253 253 255 255 255 245 245 245 116 116 116 88 88 88 
2 2 2 1 1 1 0 0 0 159 159 159 218 218 218 0 0 0 2 2 2 0 0 0 
72 72 72 73 73 73 203 203 203 253 253 253 253 253 253 254 254 254 255 255 255 255 255 255 

255 255 255 253 253 253 255 255 255 252 252 252 201 201 201 121 121 121 28 28 28 2 2 2 
126 126 126 211 211 211 240 240 240 153 153 153 105 105 105 220 220 220 230 230 230 173 173 173 
0 0 0 2 2 2 114 114 114 148 148 148 255 255 255 255 255 255 251 251 251 255 255 255 

252 252 252 255 255 255 248 248 248 230 230 230 161 161 161 4 4 4 70 70 70 208 208 208 
255 255 255 255 255 255 252 252 252 255 255 255 243 243 243 255 255 255 255 255 255 252 252 252 
241 241 241 114 114 114 6 6 6 84 84 84 211 211 211 240 240 240 255 255 255 253 253 253 

254 254 254 252 252 252 255 255 255 143 143 143 1 1 1 18 18 18 132 132 132 197 197 197 
183 183 183 179 179 179 180 180 180 189 189 189 192 192 192 182 182 182 177 177 177 197 197 197 
251 251 251 255 255 255 115 115 115 2 2 2 2 2 2 236 236 236 255 255 255 248 248 248 

255 255 255 251 251 251 198 198 198 110 110 110 2 2 2 0 0 0 0 0 0 2 2 2 
0 0 0 0 0 0 1 1 1 0 0 0 2 2 2 0 0 0 4 4 4 0 0 0 
94 94 94 249 249 249 243 243 243 1 1 1 13 13 13 164 164 164 236 236 236 254 254 254 

248 248 248 255 255 255 176 176 176 7 7 7 131 131 131 76 76 76 101 101 101 34 34 34 
42 42 42 33 33 33 79 79 79 109 109 109 102 102 102 70 70 70 30 30 30 55 55 55 
0 0 0 177 177 177 236 236 236 121 121 121 62 62 62 76 76 76 249 249 249 254 254 254 

255 255 255 229 229 229 94 94 94 111 111 111 222 222 222 120 120 120 214 214 214 18 18 18 
0 0 0 0 0 0 203 203 203 248 248 248 255 255 255 238 238 238 62 62 62 21 21 21 
2 2 2 170 170 170 164 164 164 185 185 185 186 186 186 1 1 1 188 188 188 253 253 253 

254 254 254 240 240 240 103 103 103 2 2 2 127 127 127 217 217 217 230 230 230 0 0 0 
0 0 0 0 0 0 136 136 136 181 181 181 174 174 174 155 155 155 35 35 35 0 0 0 
95 95 95 238 238 238 233 233 233 158 158 158 48 48 48 0 0 0 196 196 196 255 255 255 

255 255 255 205 205 205 56 56 56 0 0 0 224 224 224 255 255 255 223 223 223 0 0 0 
1 1 1 41 41 41 1 1 1 0 0 0 4 4 4 0 0 0 23 23 23 1 1 1 
191 191 191 254 254 254 254 254 254 255 255 255 119 119 119 2 2 2 153 153 153 245 245 245 

253 253 253 235 235 235 105 105 105 4 4 4 218 218 218 255 255 255 233 233 233 1 1 1 
10 10 10 0 0 0 149 149 149 202 202 202 186 186 186 96 96 96 1 1 1 0 0 0 
64 64 64 241 241 241 254 254 254 181 181 181 54 54 54 0 0 0 189 189 189 255 255 255 

255 255 255 225 225 225 65 65 65 1 1 1 179 179 179 248 248 248 207 207 207 0 0 0 
34 34 34 0 0 0 197 197 197 255 255 255 252 252 252 213 213 213 0 0 0 38 38 38 
3 3 3 184 184 184 243 243 243 49 49 49 0 0 0 5 5 5 170 170 170 253 253 253 

252 252 252 244 244 244 169 169 169 0 0 0 2 2 2 0 0 0 1 1 1 1 1 1 
16 16 16 38 38 38 58 58 58 5 5 5 203 203 203 248 248 248 2 2 2 0 0 0 
7 7 7 2 2 2 0 0 0 12 12 12 0 0 0 97 97 97 224 224 224 255 255 255 

254 254 254 255 255 255 169 169 169 0 0 0 53 53 53 1 1 1 0 0 0 0 0 0 
0 0 0 1 1 1 0 0 0 0 0 0 187 187 187 252 252 252 133 133 133 1 1 1 
2 2 2 0 0 0 1 1 1 41 41 41 3 3 3 77 77 77 238 238 238 255 255 255 

253 253 253 252 252 252 237 237 237 144 144 144 1 1 1 57 57 57 183 183 183 177 177 177 
187 187 187 206 206 206 198 198 198 199 199 199 228 228 228 254 254 254 240 240 240 199 199 199 
174 174 174 195 195 195 130 130 130 0 0 0 39 39 39 215 215 215 246 246 246 255 255 255 

255 255 255 255 255 255 253 253 253 167 167 167 71 71 71 3 3 3 138 138 138 146 146 146 
199 199 199 252 252 252 255 255 255 253 253 253 255 255 255 253 253 253 255 255 255 241 241 241 
140 140 140 165 165 165 54 54 54 53 53 53 106 106 106 228 228 228 255 255 255 253 253 253 

253 253 253 253 253 253 248 248 248 252 252 252 186 186 186 1 1 1 134 134 134 213 213 213 
133 133 133 245 245 245 255 255 255 251 251 251 255 255 255 254 254 254 254 254 254 177 177 177 
176 176 176 198 198 198 1 1 1 90 90 90 248 248 248 253 253 253 255 255 255 250 250 250 

255 255 255 255 255 255 255 255 255 255 255 255 225 225 225 196 196 196 47 47 47 3 3 3 
32 32 32 105 105 105 166 166 166 201 201 201 200 200 200 186 186 186 139 139 139 40 40 40 
52 52 52 7 7 7 159 159 159 209 209 209 243 243 243 255 255 255 251 251 251 255 255 255 

251 251 251 254 254 254 255 255 255 253 253 253 254 254 254 253 253 253 181 181 181 155 155 155 
4 4 4 0 0 0 0 0 0 2 2 2 0 0 0 1 1 1 0 0 0 2 2 2 
106 106 106 171 171 171 224 224 224 255 255 255 255 255 255 254 254 254 254 254 254 254 254 254 

255 255 255 254 254 254 255 255 255 249 249 249 255 255 255 250 250 250 252 252 252 239 239 239 
191 191 191 187 187 187 100 100 100 136 136 136 82 82 82 141 141 141 127 127 127 207 207 207 
201 201 201 252 252 252 252 252 252 250 250 250 255 255 255 254 254 254 255 255 255 254 254 254 

255 255 255 255 255 255 253 253 253 255 255 255 253 253 253 252 252 252 255 255 255 252 252 252 
255 255 255 248 248 248 239 239 239 244 244 244 222 222 222 255 255 255 233 233 233 254 254 254 
255 255 255 255 255 255 255 255 255 254 254 254 255 255 255 255 255 255 255 255 255 254 254 254 

